<svg width="256" height="256" viewBox="0 0 256 256" fill="none" xmlns="http://www.w3.org/2000/svg">
<rect width="256" height="256" fill="#1E1E1E"/>
<path d="M0 20.7287C0 9.28058 9.28058 0 20.7287 0H235.271C246.719 0 256 9.28058 256 20.7287V235.271C256 246.719 246.719 256 235.271 256H20.7287C9.28058 256 0 246.719 0 235.271V20.7287Z" fill="#225D3F"/>
<path d="M251.983 162.09C252.039 162.386 251.956 162.564 251.735 162.623C251.57 162.682 251.432 162.83 251.322 163.067C251.212 163.186 251.129 163.334 251.074 163.511C251.074 163.748 250.963 163.867 250.743 163.867C250.357 163.867 250.109 163.896 249.998 163.956C249.888 164.015 249.778 164.015 249.668 163.956C249.502 163.956 249.337 163.896 249.171 163.778C249.006 163.659 248.785 163.571 248.51 163.511C247.958 163.452 247.407 163.482 246.855 163.6C246.359 163.719 245.863 163.778 245.367 163.778C245.201 163.778 245.008 163.748 244.788 163.689C244.622 163.63 244.457 163.6 244.291 163.6C243.74 163.6 243.216 163.6 242.72 163.6C242.224 163.659 241.7 163.63 241.149 163.511C240.928 163.452 240.707 163.363 240.487 163.245C240.321 163.126 240.101 163.097 239.825 163.156C239.77 162.86 239.632 162.653 239.412 162.534C239.246 162.416 239.136 162.208 239.081 161.912C238.971 161.379 239.026 160.816 239.246 160.224C239.467 159.632 239.522 159.069 239.412 158.536C239.742 157.885 239.935 157.233 239.991 156.582C239.935 156.285 239.908 156.019 239.908 155.782C239.963 155.486 239.991 155.278 239.991 155.16C240.101 154.864 240.128 154.42 240.073 153.827C240.018 153.235 240.018 152.672 240.073 152.139C240.128 151.547 240.156 150.955 240.156 150.362C240.156 149.711 240.156 149 240.156 148.23C240.101 147.579 240.046 147.134 239.991 146.898C239.935 146.601 239.88 146.335 239.825 146.098C239.935 145.506 239.963 145.18 239.908 145.121C239.853 145.002 239.825 144.854 239.825 144.676C239.88 144.084 239.853 143.67 239.742 143.433C239.687 143.196 239.632 142.959 239.577 142.722C239.577 142.544 239.605 142.396 239.66 142.278C239.715 142.1 239.742 141.922 239.742 141.745C239.742 141.093 239.715 140.619 239.66 140.323C239.605 139.968 239.549 139.642 239.494 139.346C239.494 139.109 239.522 138.872 239.577 138.635C239.632 138.339 239.522 138.132 239.246 138.013C239.356 137.835 239.412 137.51 239.412 137.036C239.301 136.384 239.246 135.911 239.246 135.614C239.246 135.318 239.246 135.081 239.246 134.904C239.136 134.489 239.081 134.252 239.081 134.193C239.081 134.074 239.081 133.986 239.081 133.926C239.026 133.689 238.943 133.423 238.833 133.127C238.778 132.771 238.695 132.446 238.585 132.149C238.695 131.794 238.695 131.468 238.585 131.172C238.529 130.817 238.447 130.461 238.336 130.106C238.226 129.632 238.116 129.366 238.006 129.306C237.95 129.188 237.895 129.07 237.84 128.951C237.509 128.063 237.206 127.263 236.93 126.552C236.71 125.782 236.544 124.924 236.434 123.976C236.158 123.62 235.855 123.295 235.524 122.999C235.249 122.702 235.028 122.317 234.863 121.844C234.256 121.488 233.732 121.192 233.291 120.955C232.905 120.659 232.243 120.57 231.306 120.689C231.141 120.689 230.948 120.748 230.727 120.866C230.507 120.926 230.286 120.985 230.065 121.044C229.624 121.222 229.211 121.37 228.825 121.488C228.494 121.547 228.136 121.696 227.75 121.932C227.419 122.229 227.171 122.377 227.005 122.377C226.895 122.377 226.812 122.406 226.757 122.466C226.592 122.584 226.454 122.762 226.344 122.999C226.233 123.176 226.123 123.324 226.013 123.443C225.737 123.798 225.544 124.065 225.434 124.242C225.379 124.361 225.296 124.479 225.186 124.598C225.075 124.775 224.91 125.012 224.689 125.309C224.469 125.545 224.248 125.723 224.028 125.842C224.028 126.078 223.945 126.256 223.78 126.375C223.614 126.493 223.476 126.641 223.366 126.819C223.256 127.174 223.145 127.382 223.035 127.441C222.925 127.5 222.842 127.559 222.787 127.618C222.622 127.915 222.484 128.27 222.373 128.685C222.263 129.099 222.043 129.395 221.712 129.573C221.657 130.106 221.546 130.521 221.381 130.817C221.216 131.113 220.995 131.409 220.719 131.705C220.774 132.534 220.637 133.127 220.306 133.482C219.975 133.838 219.699 134.282 219.479 134.815C219.368 135.466 219.258 135.999 219.148 136.414C219.093 136.769 219.01 137.095 218.9 137.391C218.789 137.687 218.707 138.013 218.652 138.369C218.596 138.665 218.486 138.931 218.321 139.168C218.431 139.997 218.348 140.797 218.073 141.567C217.797 142.337 217.604 143.166 217.494 144.055C217.438 144.232 217.411 144.44 217.411 144.676C217.466 144.913 217.466 145.121 217.411 145.298C217.356 145.831 217.301 146.483 217.246 147.253C217.19 147.964 217.135 148.645 217.08 149.296C217.08 149.415 217.08 149.563 217.08 149.741C217.135 149.918 217.163 150.096 217.163 150.274C217.163 150.688 217.108 151.103 216.997 151.517C216.942 151.873 216.915 152.258 216.915 152.672C216.86 152.969 216.887 153.294 216.997 153.65C217.108 153.946 217.135 154.242 217.08 154.538C217.025 155.071 216.997 155.486 216.997 155.782C217.053 156.078 217.108 156.345 217.163 156.582C217.218 156.818 217.246 157.055 217.246 157.292C217.301 157.47 217.411 157.618 217.576 157.737C217.466 158.27 217.466 158.773 217.576 159.247C217.687 159.721 217.852 160.165 218.073 160.58C218.293 160.935 218.238 161.379 217.907 161.912C217.466 162.564 216.832 162.801 216.005 162.623C215.178 162.504 214.296 162.475 213.358 162.534C212.917 162.534 212.531 162.564 212.2 162.623C211.869 162.682 211.539 162.712 211.208 162.712C210.822 162.771 210.436 162.83 210.05 162.889C209.664 162.949 209.305 162.919 208.975 162.801C208.809 162.801 208.644 162.741 208.478 162.623C208.313 162.564 208.175 162.475 208.065 162.356C207.624 162.179 207.348 162.031 207.238 161.912C207.072 161.616 206.99 161.32 206.99 161.024C207.045 160.668 207.045 160.343 206.99 160.046C206.99 159.869 206.934 159.691 206.824 159.513C206.769 159.276 206.741 159.04 206.741 158.803C206.741 158.329 206.769 157.855 206.824 157.381C206.879 156.907 206.934 156.433 206.99 155.96C206.99 155.486 207.017 155.071 207.072 154.716C207.127 154.301 207.155 153.916 207.155 153.561C207.155 153.265 207.127 152.939 207.072 152.584C207.072 152.228 207.21 151.902 207.486 151.606C207.32 151.132 207.265 150.836 207.32 150.718C207.431 150.54 207.486 150.422 207.486 150.362C207.486 150.066 207.431 149.681 207.32 149.208V146.187C207.265 145.595 207.21 145.002 207.155 144.41C207.1 143.818 207.045 143.137 206.99 142.367C206.99 142.07 206.962 141.833 206.907 141.656C206.852 141.478 206.824 141.33 206.824 141.212C206.934 140.738 206.934 140.412 206.824 140.234C206.769 139.997 206.741 139.79 206.741 139.612C206.741 139.139 206.797 138.605 206.907 138.013C206.962 137.835 207.017 137.687 207.072 137.569C207.127 137.391 207.183 137.214 207.238 137.036C207.127 136.562 207.1 136.236 207.155 136.059C207.21 135.881 207.238 135.733 207.238 135.614C207.183 135.141 207.1 134.608 206.99 134.015C206.934 133.423 207.045 132.801 207.32 132.149C207.21 131.853 207.1 131.528 206.99 131.172C206.879 130.817 206.962 130.521 207.238 130.284C207.127 129.988 207.017 129.721 206.907 129.484C206.797 129.188 206.741 128.833 206.741 128.418C206.852 127.589 206.852 126.76 206.741 125.93C206.686 125.101 206.797 124.479 207.072 124.065C206.797 123.591 206.714 123.028 206.824 122.377C206.934 121.666 206.962 120.955 206.907 120.244C206.852 120.067 206.797 119.889 206.741 119.711C206.686 119.534 206.659 119.356 206.659 119.178C206.548 118.704 206.521 118.231 206.576 117.757C206.631 117.283 206.631 116.839 206.576 116.424C206.3 115.595 206.135 114.825 206.08 114.114C206.025 113.344 205.914 112.722 205.749 112.248C205.914 112.13 206.025 111.982 206.08 111.804C206.19 111.627 206.3 111.449 206.411 111.271C206.797 111.153 207.238 111.123 207.734 111.182C208.285 111.242 208.644 111.449 208.809 111.804C209.085 111.567 209.361 111.478 209.636 111.538C209.967 111.597 210.298 111.656 210.629 111.715C210.849 111.715 211.153 111.715 211.539 111.715C211.925 111.656 212.311 111.627 212.696 111.627C213.248 111.567 213.744 111.538 214.185 111.538C214.626 111.538 215.067 111.538 215.509 111.538C215.674 111.715 215.812 111.863 215.922 111.982C216.032 112.1 216.143 112.278 216.253 112.515C216.529 113.048 216.694 113.818 216.749 114.825C216.86 115.773 216.97 116.661 217.08 117.49C217.356 117.549 217.494 117.461 217.494 117.224C217.549 116.987 217.631 116.809 217.742 116.691C218.017 116.513 218.293 116.335 218.569 116.158C218.845 115.98 219.12 115.743 219.396 115.447C219.617 115.388 219.782 115.328 219.892 115.269C220.058 115.151 220.278 115.121 220.554 115.18C220.719 115.062 220.857 114.914 220.967 114.736C221.078 114.499 221.188 114.322 221.298 114.203C221.574 114.144 221.905 113.907 222.291 113.492C222.401 113.433 222.566 113.374 222.787 113.315C223.008 113.255 223.118 113.107 223.118 112.87C223.449 112.87 223.724 112.782 223.945 112.604C224.221 112.367 224.496 112.16 224.772 111.982C225.323 111.686 225.682 111.478 225.847 111.36C226.013 111.182 226.151 111.064 226.261 111.005C226.371 110.945 226.509 110.945 226.674 111.005C226.895 111.005 227.143 110.975 227.419 110.916L228.411 110.649C228.963 110.531 229.349 110.442 229.569 110.383C229.79 110.324 229.983 110.294 230.148 110.294C230.424 110.235 230.7 110.205 230.975 110.205C231.251 110.146 231.472 110.116 231.637 110.116C232.078 110.294 232.519 110.383 232.96 110.383C233.401 110.383 233.76 110.412 234.036 110.472C234.642 110.709 235.111 110.857 235.442 110.916C235.828 110.975 236.158 111.034 236.434 111.094C236.71 111.33 237.013 111.478 237.344 111.538C237.84 111.715 238.171 111.863 238.336 111.982C238.557 112.041 238.833 112.248 239.163 112.604C239.274 112.722 239.384 112.87 239.494 113.048C239.605 113.167 239.66 113.315 239.66 113.492C239.991 113.788 240.294 114.055 240.57 114.292C240.9 114.529 241.231 114.825 241.562 115.18C241.672 115.299 241.755 115.447 241.81 115.625C241.865 115.802 241.948 115.95 242.058 116.069C242.224 116.246 242.389 116.395 242.555 116.513C242.775 116.631 242.968 116.78 243.134 116.957C243.299 117.076 243.437 117.253 243.547 117.49C243.657 117.727 243.823 117.875 244.043 117.934C244.043 118.349 244.181 118.704 244.457 119.001C244.788 119.238 245.008 119.504 245.119 119.8C245.229 120.096 245.284 120.422 245.284 120.777C245.339 121.074 245.505 121.37 245.78 121.666C245.835 122.199 245.973 122.702 246.194 123.176C246.469 123.65 246.718 124.154 246.938 124.687C247.048 124.983 247.131 125.279 247.186 125.575C247.241 125.812 247.324 126.078 247.434 126.375C247.545 126.671 247.627 126.937 247.683 127.174C247.738 127.352 247.82 127.559 247.931 127.796C248.096 128.448 248.179 128.892 248.179 129.129C248.179 129.306 248.206 129.484 248.262 129.662C248.703 130.61 249.033 131.676 249.254 132.86C249.364 133.453 249.447 133.838 249.502 134.015C249.557 134.193 249.585 134.341 249.585 134.459C249.64 134.756 249.668 135.022 249.668 135.259C249.668 135.496 249.695 135.762 249.75 136.059C249.75 136.296 249.778 136.532 249.833 136.769C249.888 137.006 249.916 137.243 249.916 137.48C249.971 137.717 249.971 137.954 249.916 138.191C249.861 138.369 249.861 138.605 249.916 138.902C249.971 139.375 250.054 139.879 250.164 140.412C250.274 140.886 250.384 141.36 250.495 141.833C250.605 142.13 250.577 142.337 250.412 142.455C250.302 142.574 250.247 142.752 250.247 142.988C250.357 143.225 250.44 143.492 250.495 143.788C250.605 144.084 250.688 144.38 250.743 144.676C250.743 144.795 250.715 144.943 250.66 145.121C250.605 145.298 250.577 145.476 250.577 145.654C250.577 146.009 250.605 146.394 250.66 146.809C250.715 147.223 250.577 147.579 250.247 147.875C250.522 148.408 250.688 149.03 250.743 149.741C250.798 150.451 250.715 151.103 250.495 151.695C250.384 151.991 250.412 152.169 250.577 152.228C250.743 152.228 250.798 152.376 250.743 152.672C250.522 153.146 250.44 153.59 250.495 154.005C250.605 154.36 250.605 154.775 250.495 155.249C250.495 155.545 250.44 155.782 250.329 155.96C250.274 156.078 250.247 156.256 250.247 156.493C250.136 156.73 250.164 156.996 250.329 157.292C250.495 157.529 250.467 157.796 250.247 158.092C250.302 158.388 250.384 158.655 250.495 158.891C250.66 159.069 250.688 159.425 250.577 159.958C250.688 160.135 250.826 160.283 250.991 160.402C251.156 160.461 251.322 160.55 251.487 160.668C251.377 161.083 251.432 161.32 251.653 161.379C251.873 161.498 251.983 161.734 251.983 162.09Z" fill="#F5F0E8"/>
<path d="M196.485 111.982C196.485 112.16 196.403 112.397 196.237 112.693C196.127 112.989 196.072 113.255 196.072 113.492C196.127 113.907 196.127 114.173 196.072 114.292C196.072 114.41 196.072 114.529 196.072 114.647C196.127 114.943 196.127 115.151 196.072 115.269C196.017 115.388 196.017 115.506 196.072 115.625C196.127 115.98 196.099 116.246 195.989 116.424C195.934 116.602 195.906 116.75 195.906 116.868C195.851 117.046 195.851 117.253 195.906 117.49C195.962 117.668 195.989 117.846 195.989 118.023C195.879 118.497 195.796 118.882 195.741 119.178C195.741 119.415 195.713 119.593 195.658 119.711C195.658 120.008 195.631 120.333 195.576 120.689C195.576 121.044 195.603 121.429 195.658 121.844C195.658 121.962 195.686 122.11 195.741 122.288C195.851 122.466 195.906 122.643 195.906 122.821C195.962 123.472 195.934 124.154 195.824 124.864C195.769 125.575 195.769 126.256 195.824 126.908C195.824 127.204 195.851 127.47 195.906 127.707C195.962 127.944 195.962 128.211 195.906 128.507C195.906 128.922 195.851 129.306 195.741 129.662C195.631 130.017 195.548 130.432 195.493 130.906C195.548 131.261 195.548 131.676 195.493 132.15C195.438 132.564 195.493 132.919 195.658 133.216C195.548 133.63 195.41 133.986 195.245 134.282C195.355 135.111 195.328 135.911 195.162 136.681C195.052 137.451 194.997 138.25 194.997 139.079C195.052 139.375 195.107 139.672 195.162 139.968C195.217 140.205 195.245 140.471 195.245 140.767C195.245 140.886 195.217 141.034 195.162 141.212C195.107 141.389 195.079 141.567 195.079 141.745C195.19 142.278 195.19 142.663 195.079 142.9C195.024 143.137 194.969 143.314 194.914 143.433C194.859 144.084 194.831 144.617 194.831 145.032C194.831 145.387 194.693 145.802 194.418 146.276C194.252 146.572 194.225 147.046 194.335 147.697C194.445 148.289 194.363 148.793 194.087 149.208C194.197 149.563 194.225 149.889 194.17 150.185C194.17 150.481 194.17 150.866 194.17 151.34C194.225 152.169 194.197 152.761 194.087 153.117C194.032 153.413 194.004 153.709 194.004 154.005C193.949 154.716 193.977 155.397 194.087 156.048C194.197 156.641 194.28 157.233 194.335 157.825C194.114 158.418 194.17 158.921 194.5 159.336C194.831 159.75 194.997 160.195 194.997 160.668C194.886 160.965 194.804 161.201 194.749 161.379C194.693 161.616 194.666 161.764 194.666 161.823C194.39 161.942 194.142 162.06 193.921 162.179C193.701 162.356 193.48 162.475 193.26 162.534C193.094 162.534 192.929 162.504 192.764 162.445C192.598 162.386 192.405 162.356 192.185 162.356C191.964 162.297 191.688 162.297 191.357 162.356C191.082 162.475 190.806 162.534 190.53 162.534C190.255 162.593 189.924 162.593 189.538 162.534C189.207 162.534 188.904 162.593 188.628 162.712C188.297 162.771 187.966 162.889 187.636 163.067C187.36 163.245 187.084 163.334 186.808 163.334C186.422 163.748 186.092 163.926 185.816 163.867C185.54 163.867 185.347 163.896 185.237 163.956C184.906 163.659 184.63 163.186 184.41 162.534C184.189 161.883 184.244 161.379 184.575 161.024C184.3 160.254 184.244 159.395 184.41 158.447C184.575 157.5 184.575 156.552 184.41 155.604C183.969 155.782 183.555 156.019 183.169 156.315C182.838 156.611 182.508 156.937 182.177 157.292C182.011 157.411 181.873 157.588 181.763 157.825C181.653 158.003 181.487 158.151 181.267 158.27C181.046 158.388 180.798 158.506 180.523 158.625C180.247 158.743 180.054 158.891 179.944 159.069C179.668 159.188 179.365 159.247 179.034 159.247C178.758 159.247 178.482 159.306 178.207 159.425C177.821 159.543 177.435 159.661 177.049 159.78C176.663 159.839 176.222 159.928 175.725 160.046C175.395 160.165 174.953 160.313 174.402 160.491C173.851 160.668 173.272 160.698 172.665 160.58C172.224 160.461 171.921 160.461 171.755 160.58C171.645 160.639 171.507 160.668 171.342 160.668C170.901 160.787 170.432 160.728 169.936 160.491C169.825 160.728 169.55 160.787 169.109 160.668C168.723 160.55 168.419 160.431 168.199 160.313C167.758 160.491 167.344 160.52 166.958 160.402C166.572 160.283 166.159 160.195 165.718 160.135C165.442 160.135 165.276 160.046 165.221 159.869C165.221 159.691 165.111 159.573 164.89 159.513C163.677 159.573 162.382 159.425 161.003 159.069C160.893 158.832 160.727 158.655 160.507 158.536C160.341 158.418 160.231 158.21 160.176 157.914C159.9 157.973 159.707 157.914 159.597 157.737C159.542 157.559 159.377 157.47 159.101 157.47C158.991 157.174 158.825 156.967 158.605 156.848C158.439 156.67 158.301 156.493 158.191 156.315C157.915 156.315 157.695 156.256 157.529 156.137C157.419 156.019 157.226 155.96 156.95 155.96C156.62 155.486 156.427 155.219 156.371 155.16C156.316 155.101 156.261 155.042 156.206 154.982C155.93 154.745 155.71 154.627 155.544 154.627C155.434 154.627 155.351 154.597 155.296 154.538C155.02 154.242 154.8 154.005 154.634 153.827C154.469 153.65 154.304 153.442 154.138 153.205C153.807 152.732 153.532 152.436 153.311 152.317C153.091 152.139 153.008 151.843 153.063 151.429C152.567 151.073 152.236 150.836 152.071 150.718C151.96 150.54 151.85 150.362 151.74 150.185C151.519 149.889 151.381 149.593 151.326 149.296C151.271 149 151.133 148.793 150.913 148.674C150.527 148.023 150.223 147.519 150.003 147.164C149.782 146.75 149.479 146.483 149.093 146.365C149.203 146.068 149.203 145.891 149.093 145.831C148.983 145.772 148.955 145.624 149.01 145.387C148.569 144.973 148.238 144.469 148.018 143.877C147.797 143.285 147.604 142.663 147.439 142.011C147.273 141.3 147.136 140.619 147.025 139.968C146.915 139.257 146.75 138.576 146.529 137.924C146.584 137.095 146.612 136.236 146.612 135.348C146.612 134.4 146.75 133.571 147.025 132.86C147.191 132.446 147.273 132.09 147.273 131.794C147.273 131.498 147.301 131.202 147.356 130.906C147.411 130.61 147.439 130.343 147.439 130.106C147.494 129.81 147.549 129.514 147.604 129.218C147.77 128.27 147.907 127.559 148.018 127.085C148.183 126.612 148.404 126.197 148.679 125.842C148.569 125.427 148.569 125.072 148.679 124.775C148.79 124.42 148.928 124.124 149.093 123.887C149.258 123.591 149.424 123.295 149.589 122.999C149.755 122.702 149.837 122.377 149.837 122.021C150.113 121.784 150.306 121.518 150.416 121.222C150.582 120.866 150.775 120.541 150.995 120.244C151.106 120.008 151.243 119.741 151.409 119.445C151.574 119.149 151.74 118.853 151.905 118.556C152.015 118.379 152.153 118.201 152.319 118.023C152.539 117.846 152.622 117.609 152.567 117.313C152.732 117.194 152.87 117.076 152.98 116.957C153.091 116.839 153.284 116.72 153.559 116.602C154 115.891 154.359 115.269 154.634 114.736C154.91 114.144 155.241 113.611 155.627 113.137C155.848 112.9 156.041 112.722 156.206 112.604C156.427 112.426 156.647 112.248 156.868 112.071C156.978 111.775 157.171 111.597 157.447 111.538C157.777 111.419 157.97 111.212 158.026 110.916C158.577 110.797 159.128 110.679 159.68 110.56C160.231 110.383 160.727 110.116 161.169 109.761C161.499 109.702 161.83 109.672 162.161 109.672C162.547 109.613 162.878 109.465 163.154 109.228C163.705 109.346 164.146 109.317 164.477 109.139C164.808 108.902 165.111 108.665 165.387 108.428C166.269 108.428 167.096 108.428 167.868 108.428C168.695 108.369 169.577 108.369 170.515 108.428C170.956 108.428 171.369 108.399 171.755 108.339C172.196 108.28 172.582 108.28 172.913 108.339C173.189 108.339 173.437 108.339 173.658 108.339C173.878 108.339 174.071 108.428 174.237 108.606C174.733 108.369 175.202 108.399 175.643 108.695C175.753 108.754 175.891 108.784 176.056 108.784C176.222 108.724 176.442 108.754 176.718 108.872C177.269 109.05 177.628 109.139 177.793 109.139C178.014 109.139 178.179 109.139 178.289 109.139C178.731 109.376 179.006 109.524 179.116 109.583C179.227 109.642 179.42 109.79 179.695 110.027C180.412 110.501 180.964 110.857 181.35 111.094C181.791 111.271 182.204 111.508 182.59 111.804C182.866 112.16 183.059 112.367 183.169 112.426C183.28 112.485 183.39 112.574 183.5 112.693C183.61 112.811 183.721 112.959 183.831 113.137C183.941 113.255 184.079 113.403 184.244 113.581C184.355 113.818 184.52 114.025 184.741 114.203C184.961 114.381 185.182 114.588 185.402 114.825C185.513 114.943 185.595 115.091 185.651 115.269C185.761 115.447 185.899 115.595 186.064 115.713C186.174 115.832 186.34 116.01 186.56 116.246C186.836 116.424 186.974 116.661 186.974 116.957C187.194 116.128 187.25 115.269 187.139 114.381C187.029 113.433 186.864 112.633 186.643 111.982C186.478 111.627 186.312 111.36 186.147 111.182C185.981 110.945 185.981 110.56 186.147 110.027C186.202 109.79 186.312 109.524 186.478 109.228C186.698 108.932 186.864 108.724 186.974 108.606C186.974 108.665 187.167 108.724 187.553 108.784C187.939 108.784 188.27 108.784 188.545 108.784C188.821 108.843 189.042 108.902 189.207 108.961C189.428 108.961 189.648 108.961 189.869 108.961C190.475 108.961 191.22 108.991 192.102 109.05C192.984 109.109 193.728 109.257 194.335 109.494C194.776 109.376 195.135 109.405 195.41 109.583C195.686 109.702 195.989 109.82 196.32 109.939C196.375 110.175 196.375 110.383 196.32 110.56C196.32 110.679 196.348 110.857 196.403 111.094L196.485 111.982ZM184.493 133.304C184.382 133.127 184.3 132.89 184.244 132.594C184.244 132.238 184.244 131.913 184.244 131.616C184.134 131.439 183.996 131.32 183.831 131.261C183.721 131.143 183.61 131.024 183.5 130.906C183.5 130.432 183.417 130.047 183.252 129.751C183.142 129.455 183.059 129.158 183.004 128.862C183.114 128.388 183.087 128.063 182.921 127.885C182.811 127.648 182.728 127.411 182.673 127.174C182.563 126.878 182.508 126.582 182.508 126.286C182.508 125.93 182.48 125.575 182.425 125.22C182.149 125.042 181.984 124.864 181.929 124.687C181.873 124.509 181.791 124.361 181.68 124.242C181.239 123.769 180.909 123.413 180.688 123.176C180.467 122.939 180.247 122.702 180.026 122.466C179.53 121.932 179.006 121.547 178.455 121.311C178.014 121.014 177.6 120.777 177.214 120.6C176.828 120.363 176.47 120.156 176.139 119.978C175.808 119.8 175.477 119.711 175.146 119.711C174.816 119.711 174.43 119.652 173.988 119.534C173.713 119.415 173.492 119.326 173.327 119.267C173.161 119.149 172.996 119.06 172.831 119.001C172.72 119.001 172.555 119.03 172.334 119.089C172.114 119.089 171.893 119.06 171.673 119.001C171.507 119.001 171.314 118.971 171.094 118.912C170.928 118.793 170.79 118.734 170.68 118.734C170.129 118.853 169.715 118.853 169.439 118.734C169.164 118.556 168.971 118.527 168.861 118.645C168.309 118.704 167.923 118.823 167.703 119.001C167.537 119.178 167.261 119.386 166.875 119.623C166.379 119.859 166.048 120.037 165.883 120.156C165.773 120.215 165.662 120.274 165.552 120.333C165.001 120.629 164.615 120.866 164.394 121.044C164.174 121.222 163.981 121.37 163.815 121.488C163.429 121.666 163.209 121.814 163.154 121.932C163.098 121.992 163.016 122.021 162.905 122.021C162.795 122.199 162.685 122.347 162.575 122.466C162.464 122.584 162.354 122.732 162.244 122.91C161.913 123.206 161.637 123.472 161.417 123.709C161.196 123.887 161.031 124.035 160.92 124.154C160.59 124.509 160.204 124.775 159.762 124.953C159.707 125.605 159.514 126.108 159.184 126.463C158.853 126.76 158.687 127.233 158.687 127.885C158.467 128.181 158.301 128.477 158.191 128.773C158.081 129.01 157.97 129.277 157.86 129.573C157.75 129.928 157.667 130.313 157.612 130.728C157.612 131.083 157.557 131.498 157.447 131.972C157.336 132.327 157.226 132.623 157.116 132.86C157.006 133.097 156.923 133.364 156.868 133.66C156.978 134.489 156.95 135.111 156.785 135.526C156.675 135.881 156.592 136.296 156.537 136.769C156.537 137.006 156.564 137.243 156.62 137.48C156.73 137.717 156.785 137.984 156.785 138.28C156.785 138.754 156.757 139.109 156.702 139.346C156.647 139.524 156.62 139.672 156.62 139.79C156.675 140.205 156.785 140.59 156.95 140.945C157.171 141.3 157.226 141.715 157.116 142.189C157.502 142.485 157.86 142.781 158.191 143.077C158.522 143.373 158.908 143.64 159.349 143.877C159.735 144.588 160.204 145.18 160.755 145.654C161.306 146.128 161.83 146.601 162.326 147.075C162.823 147.668 163.374 148.082 163.981 148.319C164.477 148.615 164.863 148.823 165.139 148.941C165.469 149 165.773 149.059 166.048 149.119C166.214 149.178 166.407 149.267 166.627 149.385C166.903 149.444 167.096 149.504 167.206 149.563C168.144 149.681 168.998 149.859 169.77 150.096C170.542 150.274 171.232 150.362 171.838 150.362C172.003 150.422 172.196 150.451 172.417 150.451C172.638 150.392 172.831 150.333 172.996 150.274C173.217 150.274 173.437 150.274 173.658 150.274C173.933 150.274 174.154 150.244 174.319 150.185C174.76 149.948 175.036 149.829 175.146 149.829C175.257 149.829 175.367 149.8 175.477 149.741C175.643 149.681 175.836 149.593 176.056 149.474C176.277 149.356 176.497 149.415 176.718 149.652C176.883 149.296 177.104 149 177.38 148.763C177.71 148.526 178.014 148.319 178.289 148.141C178.565 147.904 178.813 147.638 179.034 147.342C179.309 147.046 179.475 146.661 179.53 146.187C179.806 145.713 180.054 145.387 180.274 145.21C180.495 144.973 180.688 144.736 180.853 144.499C180.964 144.321 181.046 144.114 181.102 143.877C181.212 143.581 181.322 143.373 181.432 143.255C181.708 142.781 181.901 142.396 182.011 142.1C182.177 141.745 182.397 141.419 182.673 141.123C182.563 140.827 182.563 140.56 182.673 140.323C182.838 140.027 182.976 139.76 183.087 139.524C183.362 138.694 183.555 137.924 183.665 137.214C183.776 136.444 183.831 135.555 183.831 134.548C184.107 134.134 184.327 133.719 184.493 133.304Z" fill="#F5F0E8"/>
<path d="M140.905 133.926C140.96 134.341 140.96 134.785 140.905 135.259C140.905 135.674 140.905 136.118 140.905 136.592C140.85 137.243 140.794 137.835 140.739 138.369C140.684 138.842 140.491 139.287 140.16 139.701C140.05 140.827 139.857 141.893 139.581 142.9C139.361 143.847 139.113 144.736 138.837 145.565C138.727 145.861 138.644 146.098 138.589 146.276C138.534 146.453 138.451 146.661 138.341 146.898C138.23 147.194 138.065 147.46 137.844 147.697C137.624 147.875 137.431 148.112 137.265 148.408C137.1 148.645 136.935 148.911 136.769 149.208C136.659 149.504 136.438 149.711 136.108 149.829C135.997 150.777 135.666 151.517 135.115 152.051C134.564 152.524 134.15 153.117 133.874 153.827C133.599 153.887 133.406 154.005 133.295 154.183C133.185 154.301 132.965 154.331 132.634 154.272C132.523 154.39 132.413 154.538 132.303 154.716C132.248 154.894 132.165 155.071 132.055 155.249C131.669 155.723 131.173 156.197 130.566 156.67C130.015 157.085 129.436 157.47 128.829 157.825C128.388 158.122 127.947 158.358 127.506 158.536C127.065 158.714 126.624 158.951 126.182 159.247C125.907 159.543 125.686 159.721 125.521 159.78C125.355 159.78 125.19 159.839 125.025 159.958C124.804 160.076 124.446 160.224 123.949 160.402C123.508 160.58 123.067 160.609 122.626 160.491C122.35 160.609 122.102 160.757 121.882 160.935C121.661 161.053 121.33 161.083 120.889 161.024C120.613 161.024 120.42 161.083 120.31 161.201C120.2 161.379 120.062 161.498 119.897 161.557C119.014 161.675 118.16 161.794 117.333 161.912C116.561 162.031 115.789 161.942 115.017 161.646C114.741 161.764 114.465 161.823 114.19 161.823C113.914 161.883 113.528 161.942 113.032 162.001C112.866 162.001 112.673 162.06 112.453 162.179C112.287 162.297 112.039 162.327 111.708 162.268C111.322 162.208 110.964 162.001 110.633 161.646C110.027 161.586 109.585 161.557 109.31 161.557C109.089 161.616 108.841 161.586 108.565 161.468C108.234 161.349 107.959 161.231 107.738 161.113C107.518 160.994 107.297 160.816 107.077 160.58C106.47 160.106 105.946 159.691 105.505 159.336C105.064 158.98 104.65 158.655 104.264 158.358C103.989 158.951 103.906 159.602 104.016 160.313C104.182 160.965 104.071 161.498 103.685 161.912C103.024 162.268 102.169 162.445 101.121 162.445C100.129 162.445 99.4122 162.149 98.971 161.557C98.4748 161.675 98.0337 161.616 97.6477 161.379C97.2617 161.142 96.9309 161.172 96.6552 161.468C96.4346 161.29 96.1589 161.142 95.8281 161.024C95.5524 160.965 95.2767 160.846 95.001 160.668C94.7253 160.609 94.5874 160.402 94.5874 160.046C94.6426 159.691 94.4496 159.573 94.0085 159.691C93.9533 159.395 93.9809 159.188 94.0912 159.069C94.2015 158.951 94.229 158.743 94.1739 158.447C94.0636 158.151 93.9258 157.855 93.7604 157.559C93.5949 157.203 93.5122 156.878 93.5122 156.582C93.5122 156.226 93.5674 155.841 93.6776 155.427C93.7879 154.953 93.8431 154.509 93.8431 154.094C93.8431 153.857 93.8155 153.65 93.7604 153.472C93.7052 153.235 93.6776 152.998 93.6776 152.761C93.7879 152.287 93.8431 151.902 93.8431 151.606C93.7328 150.955 93.6776 150.511 93.6776 150.274C93.6776 149.977 93.6776 149.77 93.6776 149.652C93.5674 149.178 93.4847 148.645 93.4295 148.053C93.3744 147.46 93.4295 146.868 93.5949 146.276C93.7052 145.98 93.6501 145.831 93.4295 145.831C93.209 145.772 93.1262 145.595 93.1814 145.298C93.1262 144.825 93.1262 144.41 93.1814 144.055C93.2917 143.64 93.3192 143.196 93.2641 142.722C93.209 142.544 93.1538 142.367 93.0987 142.189C93.0435 142.011 93.016 141.863 93.016 141.745C93.016 141.508 93.0435 141.33 93.0987 141.212C93.1538 141.034 93.1814 140.827 93.1814 140.59C93.1814 140.057 93.1262 139.553 93.016 139.079C92.9057 138.605 92.8506 138.132 92.8506 137.658C92.9057 137.362 92.9333 137.066 92.9333 136.769C92.9333 136.651 92.9057 136.562 92.8506 136.503C92.8506 136.207 92.8781 135.97 92.9333 135.792C92.9884 135.614 93.016 135.437 93.016 135.259C93.016 134.726 92.9608 134.134 92.8506 133.482C92.7954 132.771 92.7403 132.031 92.6851 131.261C92.7403 130.846 92.7127 130.55 92.6024 130.373C92.5473 130.136 92.5197 129.899 92.5197 129.662C92.4646 129.425 92.437 129.188 92.437 128.951C92.4921 128.655 92.5197 128.359 92.5197 128.063C92.5197 127.648 92.4921 127.263 92.437 126.908C92.3819 126.552 92.4921 126.227 92.7678 125.93C92.5473 125.338 92.4094 124.716 92.3543 124.065C92.2992 123.413 92.3543 122.762 92.5197 122.11C92.7403 121.577 92.823 121.222 92.7678 121.044C92.7678 120.807 92.823 120.629 92.9333 120.511C93.0435 119.978 93.0711 119.623 93.016 119.445C92.9608 119.267 92.9333 119.06 92.9333 118.823C93.0435 118.468 93.0987 118.142 93.0987 117.846C93.1538 117.49 93.1538 117.076 93.0987 116.602C93.0987 116.424 93.0435 116.246 92.9333 116.069C92.8781 115.891 92.8506 115.743 92.8506 115.625C92.9608 114.973 92.9884 114.499 92.9333 114.203C92.9333 113.848 92.9333 113.463 92.9333 113.048C92.9333 112.397 92.9884 111.775 93.0987 111.182C93.0435 110.886 92.9884 110.709 92.9333 110.649C92.9333 110.531 92.9884 110.383 93.0987 110.205C93.1538 110.087 93.1814 109.909 93.1814 109.672C93.2365 109.435 93.3192 109.198 93.4295 108.961C93.6501 108.014 93.7604 107.066 93.7604 106.118C93.8155 105.171 93.8155 104.253 93.7604 103.364C93.7052 102.416 93.6776 101.528 93.6776 100.699C93.6776 99.8103 93.7328 98.9515 93.8431 98.1223C93.8982 97.6485 94.0636 97.2635 94.3393 96.9673C94.1188 96.3751 94.0912 95.6643 94.2566 94.8351C94.4772 94.0059 94.5323 93.2951 94.422 92.7028C94.5323 92.5252 94.615 92.3178 94.6702 92.0809C94.7253 91.844 94.808 91.6367 94.9183 91.459C95.194 91.2221 95.4145 91.074 95.58 91.0148C95.8005 90.9556 95.9108 91.074 95.9108 91.3702C96.5173 91.1925 96.8757 91.1925 96.986 91.3702C97.0963 91.4886 97.2341 91.5775 97.3996 91.6367C97.565 91.3998 97.758 91.3406 97.9785 91.459C98.2542 91.5183 98.5299 91.5479 98.8056 91.5479C99.0262 91.5479 99.2743 91.5183 99.55 91.459C99.8257 91.3998 100.074 91.3406 100.294 91.2813C100.791 91.2221 101.259 91.2221 101.7 91.2813C102.142 91.2813 102.583 91.2517 103.024 91.1925C103.355 91.4886 103.52 91.6959 103.52 91.8144C103.575 91.9329 103.63 92.0217 103.685 92.0809C103.906 92.3771 104.016 92.7325 104.016 93.1471C104.016 93.5024 104.044 93.8578 104.099 94.2132C104.209 94.8647 104.264 95.3385 104.264 95.6347C104.264 95.8716 104.292 96.0493 104.347 96.1677C104.402 96.4639 104.457 96.7304 104.513 96.9673C104.568 97.2043 104.623 97.4412 104.678 97.6781C104.733 98.0335 104.733 98.4481 104.678 98.9219C104.623 99.3365 104.595 99.7511 104.595 100.166C104.65 100.699 104.733 101.202 104.843 101.676C104.954 102.15 105.036 102.683 105.092 103.275C105.202 104.519 105.202 105.763 105.092 107.007C104.981 108.251 104.981 109.465 105.092 110.649C105.588 110.412 105.946 110.235 106.167 110.116C106.442 109.939 106.691 109.761 106.911 109.583C107.132 109.465 107.297 109.346 107.407 109.228C107.573 109.109 107.821 108.991 108.152 108.872C108.703 108.635 109.337 108.458 110.054 108.339C110.826 108.221 111.543 108.043 112.205 107.806C112.756 107.629 113.059 107.54 113.114 107.54C113.225 107.54 113.335 107.51 113.445 107.451C113.555 107.332 113.831 107.273 114.272 107.273C114.713 107.273 115.099 107.244 115.43 107.184C115.706 107.184 115.954 107.184 116.175 107.184C116.45 107.125 116.726 107.096 117.002 107.096C117.277 107.096 117.47 107.096 117.581 107.096C117.691 107.036 117.829 107.125 117.994 107.362C118.766 106.947 119.731 106.888 120.889 107.184C122.102 107.421 123.177 107.629 124.115 107.806C124.335 108.162 124.639 108.369 125.025 108.428C125.466 108.487 125.769 108.724 125.934 109.139C126.541 109.257 127.01 109.494 127.34 109.85C127.726 110.146 128.14 110.442 128.581 110.738C128.967 110.738 129.215 110.827 129.325 111.005C129.491 111.123 129.684 111.242 129.904 111.36C130.18 111.479 130.401 111.597 130.566 111.715C130.787 111.834 131.007 112.012 131.228 112.248C131.503 112.545 131.752 112.752 131.972 112.87C132.248 112.93 132.441 113.018 132.551 113.137C132.882 113.966 133.158 114.558 133.378 114.914C133.599 115.21 133.819 115.506 134.04 115.802C134.15 115.98 134.316 116.187 134.536 116.424C134.812 116.602 135.032 116.78 135.198 116.957C135.363 117.549 135.473 117.934 135.529 118.112C135.639 118.29 135.749 118.438 135.859 118.556C136.135 118.971 136.273 119.267 136.273 119.445C136.328 119.563 136.383 119.682 136.438 119.8C136.604 120.096 136.769 120.392 136.935 120.689C137.155 120.985 137.348 121.311 137.514 121.666C137.734 122.081 137.927 122.466 138.093 122.821C138.258 123.176 138.479 123.561 138.754 123.976C138.975 124.45 139.168 125.072 139.333 125.842C139.499 126.552 139.719 127.174 139.995 127.707C139.885 128.181 139.912 128.655 140.078 129.129C140.243 129.603 140.381 130.076 140.491 130.55C140.546 130.846 140.546 131.143 140.491 131.439C140.491 131.735 140.519 132.061 140.574 132.416C140.629 132.712 140.684 132.979 140.739 133.216C140.85 133.453 140.905 133.689 140.905 133.926ZM132.716 135.881C132.716 135.703 132.661 135.555 132.551 135.437C132.496 135.259 132.468 135.081 132.468 134.904C132.468 134.667 132.468 134.489 132.468 134.371C132.523 134.252 132.579 134.074 132.634 133.838C132.358 133.601 132.248 133.334 132.303 133.038C132.413 132.683 132.441 132.298 132.386 131.883C132.22 131.231 132.138 130.817 132.138 130.639C132.138 130.402 132.11 130.195 132.055 130.017C131.945 129.721 131.834 129.395 131.724 129.04C131.614 128.685 131.614 128.329 131.724 127.974C131.448 127.855 131.283 127.678 131.228 127.441C131.173 127.204 131.09 126.967 130.98 126.73C130.869 126.552 130.731 126.375 130.566 126.197C130.456 125.96 130.428 125.664 130.483 125.309C130.208 125.012 129.959 124.716 129.739 124.42C129.574 124.124 129.436 123.769 129.325 123.354C128.884 123.354 128.581 123.235 128.416 122.999C128.25 122.702 127.947 122.525 127.506 122.466C127.451 122.288 127.34 122.169 127.175 122.11C127.065 121.992 126.954 121.873 126.844 121.755C126.734 121.636 126.624 121.488 126.513 121.311C126.458 121.133 126.348 120.985 126.182 120.866C125.631 120.866 125.245 120.807 125.025 120.689C124.749 120.392 124.501 120.215 124.28 120.156C124.115 120.096 123.977 120.037 123.867 119.978C123.15 119.445 122.543 119.149 122.047 119.089C121.551 118.971 120.944 119.06 120.227 119.356C119.952 119.238 119.786 119.06 119.731 118.823C119.676 118.527 119.511 118.349 119.235 118.29C119.069 118.231 118.794 118.201 118.408 118.201C118.022 118.142 117.746 117.964 117.581 117.668C117.305 117.609 116.947 117.638 116.505 117.757C116.064 117.816 115.678 117.905 115.348 118.023C114.741 118.201 114.272 118.319 113.941 118.379C113.666 118.379 113.473 118.408 113.362 118.468C112.921 118.586 112.563 118.823 112.287 119.178C112.012 119.474 111.653 119.652 111.212 119.711C110.991 120.067 110.716 120.392 110.385 120.689C110.054 120.985 109.751 121.281 109.475 121.577C109.199 121.873 108.924 122.199 108.648 122.554C108.427 122.91 108.124 123.206 107.738 123.443C107.463 123.917 107.132 124.45 106.746 125.042C106.415 125.634 106.112 126.167 105.836 126.641C105.726 126.878 105.615 127.085 105.505 127.263C105.395 127.441 105.285 127.648 105.174 127.885C104.899 128.359 104.761 128.714 104.761 128.951C104.761 129.129 104.733 129.277 104.678 129.395C104.402 130.343 104.182 131.261 104.016 132.149C103.906 132.979 103.823 133.719 103.768 134.371C103.768 135.911 104.071 137.273 104.678 138.457C104.568 138.813 104.568 139.109 104.678 139.346C104.843 139.583 104.954 139.82 105.009 140.057C105.119 140.649 105.202 141.034 105.257 141.212C105.367 141.33 105.45 141.448 105.505 141.567C105.781 142.218 105.974 142.663 106.084 142.9C106.194 143.137 106.305 143.373 106.415 143.61C106.911 144.262 107.214 144.795 107.325 145.21C107.435 145.565 107.6 145.891 107.821 146.187C107.931 146.365 108.097 146.513 108.317 146.631C108.538 146.749 108.758 146.898 108.979 147.075C109.144 147.194 109.282 147.371 109.392 147.608C109.503 147.786 109.613 147.934 109.723 148.053C110.44 148.467 110.991 148.852 111.377 149.208C111.819 149.504 112.232 149.859 112.618 150.274C113.004 150.274 113.252 150.362 113.362 150.54C113.528 150.718 113.748 150.866 114.024 150.984C114.741 151.458 115.237 151.784 115.513 151.962C115.844 152.08 116.312 152.199 116.919 152.317C117.967 152.435 118.959 152.465 119.897 152.406C120.834 152.347 121.716 152.258 122.543 152.139C122.984 152.08 123.398 152.021 123.784 151.962C124.17 151.902 124.556 151.784 124.942 151.606C125.217 151.429 125.493 151.192 125.769 150.896C126.045 150.54 126.348 150.244 126.679 150.007C127.01 149.711 127.368 149.474 127.754 149.296C128.14 149.059 128.443 148.793 128.664 148.497C128.774 148.378 128.829 148.23 128.829 148.053C128.884 147.875 128.967 147.697 129.077 147.519C129.188 147.401 129.27 147.283 129.325 147.164C129.436 146.986 129.546 146.838 129.656 146.72C129.767 146.365 129.849 146.157 129.904 146.098C130.015 145.98 130.097 145.891 130.152 145.831C130.428 145.417 130.594 145.121 130.649 144.943C130.704 144.706 130.787 144.469 130.897 144.232C131.173 143.581 131.393 143.077 131.559 142.722C131.724 142.367 131.862 142.041 131.972 141.745C132.082 141.33 132.165 140.975 132.22 140.678C132.331 140.382 132.468 140.057 132.634 139.701C132.413 139.05 132.358 138.428 132.468 137.835C132.634 137.184 132.716 136.532 132.716 135.881Z" fill="#F5F0E8"/>
<path d="M84.5797 133.926C84.4694 134.578 84.4694 135.111 84.5797 135.526C84.6899 135.94 84.6348 136.296 84.4142 136.592C84.7451 136.888 84.8554 137.243 84.7451 137.658C84.6899 138.072 84.6072 138.517 84.4969 138.99C84.4418 139.287 84.4418 139.583 84.4969 139.879C84.5521 140.175 84.5521 140.412 84.4969 140.59C84.2212 141.123 84.0283 141.508 83.918 141.745C83.8628 141.982 83.7801 142.1 83.6698 142.1C83.725 142.455 83.6974 142.811 83.5871 143.166C83.4769 143.522 83.3666 143.877 83.2563 144.232C83.146 144.706 83.0357 145.002 82.9255 145.121C82.8703 145.239 82.8428 145.358 82.8428 145.476C82.7876 146.068 82.7049 146.483 82.5946 146.72C82.5395 146.898 82.4843 147.046 82.4292 147.164C82.2638 147.638 82.0984 148.112 81.933 148.586C81.7675 149.059 81.6021 149.533 81.4367 150.007C81.161 150.599 80.9129 151.192 80.6923 151.784C80.4718 152.317 80.1685 152.791 79.7825 153.205C79.7825 153.502 79.7825 153.709 79.7825 153.827C79.8376 153.887 79.8376 154.064 79.7825 154.36C79.5068 154.657 79.2587 154.923 79.0381 155.16C78.8176 155.338 78.597 155.664 78.3764 156.137C78.211 156.611 77.9353 157.085 77.5494 157.559C77.3288 157.855 77.0807 158.092 76.805 158.27C76.5293 158.388 76.2536 158.595 75.9779 158.891C75.7022 158.891 75.5368 158.921 75.4816 158.98C75.4265 159.04 75.2886 159.01 75.0681 158.891C74.627 159.365 74.2134 159.721 73.8274 159.958C73.4415 160.195 72.8901 160.431 72.1732 160.668C71.8424 160.787 71.5943 160.846 71.4289 160.846C71.3186 160.846 71.2083 160.876 71.098 160.935C70.7672 161.053 70.4088 161.172 70.0228 161.29C69.692 161.468 69.306 161.557 68.8649 161.557C68.2583 161.498 67.8172 161.498 67.5415 161.557C67.321 161.675 67.0728 161.764 66.7971 161.823C66.356 161.942 65.8873 161.971 65.3911 161.912C64.8948 161.912 64.3986 161.942 63.9023 162.001C63.4612 162.001 63.1855 162.031 63.0752 162.09C62.9649 162.208 62.8547 162.268 62.7444 162.268C62.3033 162.268 61.9724 162.238 61.7519 162.179C61.5864 162.179 61.4486 162.208 61.3383 162.268C61.0075 162.327 60.6766 162.416 60.3458 162.534C60.015 162.712 59.5738 162.741 59.0224 162.623C58.0851 162.86 57.1477 162.978 56.2103 162.978C55.273 163.038 54.5286 162.83 53.9772 162.356C53.6463 162.534 53.2879 162.564 52.902 162.445C52.516 162.327 52.2403 162.238 52.0749 162.179C51.9646 162.179 51.8543 162.179 51.744 162.179C51.1926 162.06 50.6137 161.883 50.0071 161.646C49.4557 161.468 48.9595 161.201 48.5184 160.846C47.7464 160.55 47.1674 160.283 46.7815 160.046C46.4506 159.81 46.0095 159.661 45.4581 159.602C45.1273 159.247 44.8791 158.951 44.7137 158.714C44.5483 158.477 44.4105 158.299 44.3002 158.181C44.1899 158.062 44.052 158.003 43.8866 158.003C43.7212 157.944 43.5834 157.855 43.4731 157.737C43.032 157.322 42.7011 157.085 42.4806 157.026C42.3151 156.907 42.1773 156.789 42.067 156.67C41.9567 156.552 41.8465 156.433 41.7362 156.315C41.6259 156.137 41.5156 155.96 41.4053 155.782C40.9091 155.13 40.5507 154.686 40.3301 154.449C40.1096 154.212 39.889 154.005 39.6684 153.827C39.6133 153.59 39.5306 153.413 39.4203 153.294C39.3652 153.176 39.3652 152.969 39.4203 152.672C39.0343 152.317 38.8138 152.08 38.7586 151.962C38.7035 151.843 38.6484 151.754 38.5932 151.695C38.2072 151.044 37.8764 150.57 37.6007 150.274C37.4904 150.096 37.4077 149.889 37.3526 149.652C37.2974 149.415 37.2147 149.089 37.1045 148.674C36.9942 148.141 36.8839 147.727 36.7736 147.431C36.6633 147.075 36.6633 146.75 36.7736 146.453C36.6633 146.276 36.5255 146.128 36.3601 146.009C36.2498 145.891 36.1671 145.743 36.1119 145.565C36.0017 145.091 35.9465 144.647 35.9465 144.232C36.0017 143.818 35.9741 143.403 35.8638 142.988C35.8087 142.692 35.6984 142.426 35.533 142.189C35.4227 141.952 35.4227 141.685 35.533 141.389C35.3676 141.212 35.2297 141.004 35.1194 140.767C35.0643 140.471 34.954 140.234 34.7886 140.057C34.8989 139.701 34.8713 139.346 34.7059 138.99C34.5956 138.635 34.5405 138.22 34.5405 137.747C34.5405 137.51 34.5405 137.302 34.5405 137.125C34.5956 136.888 34.6507 136.621 34.7059 136.325V134.815C34.761 134.459 34.8162 134.134 34.8713 133.838C34.9816 133.541 35.0919 133.245 35.2021 132.949C35.2573 132.594 35.2849 132.298 35.2849 132.061C35.2849 131.765 35.3951 131.557 35.6157 131.439C35.3951 130.669 35.4227 129.958 35.6984 129.307C35.9741 128.655 36.1119 127.944 36.1119 127.174C36.2222 127.056 36.3049 126.908 36.3601 126.73C36.4152 126.493 36.4979 126.315 36.6082 126.197C36.6082 125.545 36.6909 125.012 36.8563 124.598C37.0769 124.183 37.2423 123.739 37.3526 123.265C37.6834 123.147 37.904 122.969 38.0143 122.732C38.1797 122.436 38.3451 122.14 38.5105 121.844C38.8414 121.607 39.0619 121.34 39.1722 121.044C39.2825 120.689 39.4755 120.541 39.7512 120.6C40.082 120.067 40.3301 119.623 40.4955 119.267C40.7161 118.912 41.0194 118.616 41.4053 118.379C41.8465 118.142 42.1222 117.994 42.2324 117.934C42.3427 117.875 42.453 117.786 42.5633 117.668C42.7287 117.49 42.8665 117.342 42.9768 117.224C43.0871 117.046 43.1974 116.898 43.3077 116.78C43.8039 116.365 44.3002 116.039 44.7964 115.802C44.9619 115.565 45.1548 115.358 45.3754 115.18C45.6511 115.003 45.9268 114.825 46.2025 114.647C46.6436 114.351 46.9469 114.173 47.1123 114.114C47.2777 114.055 47.4156 114.025 47.5258 114.025C47.6913 113.907 47.9118 113.759 48.1875 113.581C48.5184 113.344 48.8216 113.315 49.0973 113.492C49.759 112.782 50.9445 112.426 52.6538 112.426C53.5361 112.189 54.1977 112.012 54.6389 111.893C55.08 111.775 55.6589 111.745 56.3757 111.804C56.5963 111.804 56.7893 111.834 56.9547 111.893C57.1753 111.952 57.3683 111.982 57.5337 111.982C57.8094 111.982 58.0575 111.952 58.2781 111.893C58.5538 111.834 58.8295 111.775 59.1052 111.715C59.822 111.597 60.3734 111.538 60.7593 111.538C61.1453 111.479 61.5313 111.508 61.9173 111.627C62.5238 111.804 62.9374 111.893 63.1579 111.893C63.4336 111.834 63.6266 111.804 63.7369 111.804C63.9023 111.864 64.0677 111.923 64.2331 111.982C64.3986 112.041 64.5364 112.1 64.6467 112.16C65.2532 112.337 65.6943 112.426 65.97 112.426C66.2457 112.426 66.4663 112.456 66.6317 112.515C66.8523 112.515 67.0728 112.574 67.2934 112.693C67.5139 112.752 67.7345 112.841 67.9551 112.959C68.1756 113.018 68.3962 113.107 68.6167 113.226C68.8373 113.285 69.0579 113.344 69.2784 113.403C70.0504 113.581 70.7672 113.64 71.4289 113.581C72.0905 113.522 72.8073 113.67 73.5793 114.025C73.6896 114.085 73.8274 114.173 73.9928 114.292C74.1583 114.41 74.3237 114.529 74.4891 114.647C74.7648 114.707 74.9578 114.795 75.0681 114.914C75.1784 115.032 75.2886 115.121 75.3989 115.18C76.3363 115.713 77.0807 116.217 77.6321 116.691C78.1835 117.165 78.7073 117.638 79.2035 118.112C79.2035 118.408 79.2587 118.675 79.369 118.912C79.4792 119.089 79.5895 119.297 79.6998 119.534C79.9755 119.771 80.1961 120.008 80.3615 120.244C80.5269 120.422 80.7199 120.629 80.9404 120.866C81.0507 120.985 81.0783 121.133 81.0231 121.311C81.0231 121.488 81.0783 121.696 81.1886 121.932C81.2988 122.229 81.4367 122.554 81.6021 122.91C81.8227 123.265 82.0157 123.591 82.1811 123.887C82.1811 124.361 82.2086 124.627 82.2638 124.687C82.3189 124.746 82.4292 124.983 82.5946 125.397C82.7049 125.694 82.8428 126.079 83.0082 126.552C83.1736 126.967 83.4769 127.263 83.918 127.441C83.8628 127.737 83.918 128.063 84.0834 128.418C84.2488 128.714 84.3591 129.04 84.4142 129.395C84.4694 129.81 84.4969 130.225 84.4969 130.639C84.4969 131.054 84.4969 131.439 84.4969 131.794C84.4418 132.446 84.4418 132.919 84.4969 133.216C84.5521 133.453 84.5797 133.689 84.5797 133.926ZM74.7372 132.949C74.6821 132.475 74.6545 132.179 74.6545 132.061C74.7097 131.942 74.7097 131.735 74.6545 131.439C74.5442 130.846 74.3788 130.284 74.1583 129.751C73.9377 129.218 73.7723 128.596 73.662 127.885C73.6069 127.53 73.5793 127.174 73.5793 126.819C73.6344 126.404 73.6069 125.99 73.4966 125.575C73.276 125.457 73.1382 125.279 73.083 125.042C73.083 124.805 73.0003 124.627 72.8349 124.509C72.7246 124.272 72.5592 124.094 72.3387 123.976C72.1181 123.857 71.9803 123.65 71.9251 123.354C71.3186 123.058 70.7948 122.762 70.3536 122.466C69.8022 122.466 69.2508 122.406 68.6994 122.288C68.4237 122.169 68.2032 122.051 68.0378 121.932C67.9275 121.814 67.7621 121.725 67.5415 121.666C67.1004 121.607 66.7971 121.666 66.6317 121.844C66.4663 122.021 66.1355 122.051 65.6392 121.932C65.3635 121.814 65.1429 121.607 64.9775 121.311C64.8672 120.955 64.6743 120.689 64.3986 120.511C64.1229 120.393 63.9299 120.363 63.8196 120.422C63.7645 120.422 63.599 120.422 63.3233 120.422C63.1579 120.363 63.0476 120.274 62.9925 120.156C62.9374 119.978 62.7719 119.919 62.4962 119.978C62 120.096 61.4486 120.274 60.8421 120.511C60.2907 120.689 59.7117 120.629 59.1052 120.333C58.8295 120.393 58.6089 120.481 58.4435 120.6C58.3332 120.718 58.1954 120.837 58.0299 120.955C58.0299 120.777 57.8921 120.718 57.6164 120.777C57.3958 120.837 57.2304 120.837 57.1201 120.777C56.679 121.133 56.1552 121.459 55.5487 121.755C54.9421 121.992 54.4183 122.229 53.9772 122.466C53.5361 122.643 53.2052 122.851 52.9847 123.087C52.8192 123.324 52.6814 123.502 52.5711 123.62C52.4057 123.798 52.2403 123.976 52.0749 124.154C51.9646 124.331 51.7992 124.479 51.5786 124.598C50.8066 125.072 50.2277 125.545 49.8417 126.019C49.4557 126.434 49.0422 126.76 48.6011 126.997C48.5459 127.47 48.3529 127.855 48.0221 128.152C47.7464 128.388 47.5258 128.744 47.3604 129.218C47.2501 129.514 47.1399 129.869 47.0296 130.284C46.9744 130.698 46.8917 131.054 46.7815 131.35C46.4506 132.416 46.2852 133.334 46.2852 134.104C46.3403 134.815 46.2025 135.466 45.8717 136.059C46.0371 136.177 46.0922 136.355 46.0371 136.592C46.0371 136.829 46.0646 137.066 46.1198 137.302C46.2301 137.599 46.3128 137.895 46.3679 138.191C46.4782 138.487 46.4782 138.813 46.3679 139.168C46.3679 139.76 46.3955 140.175 46.4506 140.412C46.7263 140.827 46.8366 141.093 46.7815 141.212C46.7815 141.33 46.809 141.448 46.8642 141.567C46.9193 141.745 47.002 141.922 47.1123 142.1C47.2777 142.278 47.3053 142.515 47.195 142.811C47.4707 142.929 47.6086 143.107 47.6086 143.344C47.6637 143.581 47.8015 143.758 48.0221 143.877C47.9118 144.232 47.967 144.588 48.1875 144.943C48.4632 145.298 48.5459 145.743 48.4356 146.276C48.7113 146.513 48.8492 146.69 48.8492 146.809C48.8492 146.927 48.8768 147.046 48.9319 147.164C49.0422 147.283 49.1525 147.431 49.2627 147.608C49.4282 147.727 49.5109 147.934 49.5109 148.23C49.7866 148.349 50.0071 148.556 50.1725 148.852C50.3931 149.089 50.6412 149.326 50.9169 149.563C51.0272 149.681 51.1375 149.8 51.2478 149.918C51.4132 149.977 51.551 150.066 51.6613 150.185C51.937 150.362 52.1576 150.54 52.323 150.718C52.4884 150.896 52.6538 151.044 52.8192 151.162C53.0949 151.458 53.3431 151.636 53.5636 151.695C53.7842 151.695 53.9772 151.754 54.1426 151.873C54.308 151.991 54.4459 152.11 54.5561 152.228C54.7216 152.347 54.8594 152.436 54.9697 152.495C55.4108 152.672 55.8795 152.791 56.3757 152.85C56.872 152.85 57.3131 153.087 57.6991 153.561C58.1402 153.561 58.5262 153.65 58.857 153.827C59.243 153.946 59.7117 153.975 60.2631 153.916C60.4836 153.916 60.6491 154.005 60.7593 154.183C60.8696 154.301 61.0626 154.36 61.3383 154.36C61.614 154.301 61.807 154.242 61.9173 154.183C62.0276 154.124 62.2205 154.094 62.4962 154.094C62.7719 154.035 63.0201 154.064 63.2406 154.183C63.5163 154.242 63.7645 154.272 63.985 154.272C64.2607 154.212 64.564 154.094 64.8948 153.916C65.2808 153.739 65.5565 153.59 65.7219 153.472C65.9976 153.294 66.2457 153.146 66.4663 153.028C66.6869 152.85 66.9626 152.761 67.2934 152.761C67.3485 152.465 67.4588 152.258 67.6242 152.139C67.8448 151.962 68.0378 151.784 68.2032 151.606C68.4789 151.31 68.727 151.073 68.9476 150.896C69.1681 150.659 69.3611 150.392 69.5265 150.096C69.6368 149.859 69.7747 149.681 69.9401 149.563C70.1055 149.385 70.2434 149.208 70.3536 149.03C70.7396 148.497 71.0705 147.964 71.3461 147.431C71.6218 146.838 71.8975 146.246 72.1732 145.654C72.3387 145.358 72.5041 145.061 72.6695 144.765C72.8349 144.41 72.9728 144.055 73.083 143.699C73.1382 143.107 73.1933 142.752 73.2485 142.633C73.3587 142.455 73.3587 142.307 73.2485 142.189C73.3587 141.715 73.4415 141.33 73.4966 141.034C73.6069 140.679 73.6344 140.323 73.5793 139.968C73.855 139.672 73.9928 139.316 73.9928 138.902C73.9928 138.487 74.048 138.013 74.1583 137.48C74.2134 137.184 74.2961 136.947 74.4064 136.769C74.5167 136.532 74.5718 136.266 74.5718 135.97C74.6821 135.496 74.7372 134.963 74.7372 134.371C74.7372 133.719 74.7372 133.245 74.7372 132.949Z" fill="#F5F0E8"/>
<path d="M30.6531 116.691C30.598 117.283 30.598 117.698 30.6531 117.934C30.7082 118.171 30.7082 118.349 30.6531 118.468C30.5428 118.882 30.3498 119.178 30.0741 119.356C29.7984 119.474 29.5503 119.652 29.3298 119.889C28.7784 119.593 28.2821 119.534 27.841 119.711C27.3999 119.889 26.9588 120.037 26.5176 120.156C26.4074 120.156 26.2144 120.185 25.9387 120.244C25.7181 120.244 25.5527 120.244 25.4424 120.244C25.0013 120.244 24.5878 120.333 24.2018 120.511C23.8158 120.689 23.4574 120.807 23.1266 120.866C22.8509 120.926 22.6027 120.926 22.3822 120.866C22.1616 120.807 21.9135 120.866 21.6378 121.044C21.4172 121.577 21.3345 122.169 21.3897 122.821C21.4999 123.413 21.4999 124.035 21.3897 124.687C21.2794 125.634 21.2518 126.404 21.3069 126.997C21.4172 127.53 21.4724 128.033 21.4724 128.507C21.4724 129.04 21.4448 129.543 21.3897 130.017C21.3897 130.491 21.4999 130.935 21.7205 131.35C21.5551 131.705 21.4448 132.149 21.3897 132.683C21.3897 133.156 21.3897 133.63 21.3897 134.104C21.2794 134.933 21.2794 135.881 21.3897 136.947C21.4999 138.013 21.5551 138.961 21.5551 139.79C21.4999 140.205 21.4448 140.59 21.3897 140.945C21.3897 141.241 21.3621 141.567 21.3069 141.922C21.1967 142.396 21.1691 142.692 21.2242 142.811C21.2794 142.929 21.3069 143.048 21.3069 143.166C21.2518 143.758 21.2242 144.44 21.2242 145.21C21.2794 145.98 21.2794 146.779 21.2242 147.608C21.2242 148.141 21.1967 148.526 21.1415 148.763C21.0864 149 21.0588 149.208 21.0588 149.385C21.114 149.859 21.1691 150.362 21.2242 150.896C21.3345 151.429 21.1967 151.962 20.8107 152.495C20.8107 152.672 20.8383 152.85 20.8934 153.028C21.0037 153.146 21.0864 153.294 21.1415 153.472C21.0312 153.946 21.0037 154.301 21.0588 154.538C21.1691 154.775 21.2242 154.953 21.2242 155.071C21.114 155.723 21.0864 156.285 21.1415 156.759C21.1967 157.174 21.2518 157.588 21.3069 158.003C21.3069 159.839 20.9485 161.053 20.2317 161.646C19.5149 161.527 18.7981 161.409 18.0813 161.29C17.4196 161.172 16.7304 161.172 16.0135 161.29C15.6827 161.349 15.3519 161.409 15.021 161.468C14.6902 161.586 14.3042 161.557 13.8631 161.379C13.5874 161.438 13.3944 161.498 13.2841 161.557C13.1739 161.675 13.0084 161.734 12.7879 161.734C12.5673 161.794 12.3743 161.734 12.2089 161.557C12.0435 161.379 11.8505 161.261 11.6299 161.201C11.5197 160.491 11.4921 159.602 11.5472 158.536C11.6575 157.47 11.6851 156.345 11.6299 155.16C11.6299 154.864 11.6024 154.627 11.5472 154.449C11.4921 154.212 11.437 153.946 11.3818 153.65C11.3267 153.235 11.2991 152.82 11.2991 152.406C11.3542 151.932 11.3542 151.458 11.2991 150.984C11.2991 150.807 11.3267 150.629 11.3818 150.451C11.437 150.214 11.4645 150.007 11.4645 149.829C11.4645 149.592 11.4094 149.474 11.2991 149.474C11.244 149.415 11.2164 149.208 11.2164 148.852C11.2164 148.082 11.2715 147.371 11.3818 146.72C11.5472 146.068 11.6851 145.417 11.7954 144.765C11.6851 144.055 11.6299 143.551 11.6299 143.255C11.6299 142.9 11.6299 142.603 11.6299 142.367C11.5748 142.13 11.4921 141.863 11.3818 141.567C11.2715 141.271 11.2164 140.975 11.2164 140.678C11.2164 140.442 11.2164 140.264 11.2164 140.145C11.2715 140.027 11.244 139.82 11.1337 139.524C11.0785 138.517 11.0785 137.628 11.1337 136.858C11.244 136.029 11.2715 135.229 11.2164 134.459C11.051 133.808 10.9683 133.304 10.9683 132.949C10.9683 132.534 10.9407 132.179 10.8856 131.883C10.8304 131.468 10.7753 131.024 10.7201 130.55C10.7201 130.076 10.7477 129.573 10.8028 129.04C10.8028 128.803 10.8304 128.596 10.8856 128.418C10.9407 128.24 10.9683 128.033 10.9683 127.796C10.9683 127.5 10.9131 127.233 10.8028 126.997C10.7477 126.76 10.7201 126.493 10.7201 126.197C10.7201 125.723 10.7477 125.22 10.8028 124.687C10.9131 124.154 10.9683 123.65 10.9683 123.176C10.9131 122.999 10.858 122.821 10.8028 122.643C10.7477 122.406 10.7201 122.199 10.7201 122.021C10.665 121.429 10.6926 120.866 10.8028 120.333C10.9683 119.8 10.9958 119.267 10.8856 118.734C9.78277 118.971 8.90053 119.208 8.23886 119.445C8.0183 119.504 7.79774 119.563 7.57718 119.623C7.41176 119.623 7.1912 119.682 6.91551 119.8C6.47439 119.919 6.11598 120.037 5.84028 120.156C5.56459 120.274 5.26132 120.185 4.93048 119.889C4.43422 119.415 4.13096 119.03 4.02068 118.734C3.96554 118.26 4.02068 117.875 4.1861 117.579C4.40665 117.283 4.65478 116.987 4.93048 116.691C4.8202 116.454 4.8202 116.276 4.93048 116.158C5.04076 116.039 5.12347 115.832 5.17861 115.536C5.23375 115.24 5.23375 114.943 5.17861 114.647C5.17861 114.292 5.23375 113.937 5.34403 113.581C5.45431 113.226 5.59216 112.9 5.75757 112.604C5.92299 112.308 6.03327 112.012 6.08841 111.715C6.14355 111.301 6.11598 110.886 6.0057 110.472C5.89542 110.057 5.89542 109.642 6.0057 109.228C6.17112 108.221 6.86037 107.836 8.07344 108.073C8.40428 108.191 8.70754 108.28 8.98324 108.339C9.25894 108.399 9.45193 108.576 9.56221 108.872C10.0585 108.813 10.4169 108.872 10.6374 109.05C10.9131 109.228 11.2715 109.317 11.7127 109.317C12.0986 108.784 12.264 108.073 12.2089 107.184C12.1538 106.296 12.1538 105.348 12.2089 104.341C12.3192 103.808 12.3468 103.423 12.2916 103.186C12.2365 102.949 12.1813 102.713 12.1262 102.476C12.0159 101.587 12.0435 100.758 12.2089 99.988C12.264 99.8103 12.3192 99.6327 12.3743 99.455C12.4295 99.2181 12.457 99.0107 12.457 98.8331C12.457 98.3592 12.3743 97.9446 12.2089 97.5892C12.2089 97.2339 12.1538 96.9673 12.0435 96.7897C11.9884 96.612 11.9056 96.4639 11.7954 96.3454C11.7402 96.227 11.6851 96.1381 11.6299 96.0789C11.5748 95.9604 11.5748 95.7828 11.6299 95.5458C12.0159 95.1312 12.2916 94.9535 12.457 95.0128C12.6225 95.0128 12.843 95.0128 13.1187 95.0128C13.5598 94.8943 13.9182 94.8055 14.1939 94.7462C14.5248 94.687 14.9383 94.7166 15.4346 94.8351C15.9308 94.7166 16.3168 94.7166 16.5925 94.8351C16.8682 94.8943 17.1715 94.9535 17.5023 95.0128C17.7229 94.9535 17.9159 94.8647 18.0813 94.7462C18.2467 94.6278 18.4121 94.5389 18.5775 94.4797C18.743 94.5982 18.9635 94.6278 19.2392 94.5686C19.5149 94.4501 19.7079 94.5093 19.8182 94.7462C20.0939 95.1608 20.2869 95.4274 20.3971 95.5458C20.5074 95.6051 20.5626 95.6939 20.5626 95.8124C20.6728 96.2862 20.6728 96.9673 20.5626 97.8558C20.5074 98.685 20.4523 99.4254 20.3971 100.077C20.4523 100.373 20.4798 100.669 20.4798 100.965C20.4798 101.202 20.4798 101.469 20.4798 101.765C20.4798 101.943 20.4523 102.18 20.3971 102.476C20.342 102.772 20.3144 102.979 20.3144 103.098C20.4798 103.631 20.535 104.045 20.4798 104.341C20.4798 104.578 20.5074 104.756 20.5626 104.874C20.6177 105.289 20.7004 105.674 20.8107 106.029C20.921 106.326 20.7831 106.681 20.3971 107.096C20.5074 107.451 20.535 107.806 20.4798 108.162C20.4247 108.458 20.3696 108.813 20.3144 109.228C20.3144 109.405 20.3144 109.613 20.3144 109.85C20.3696 110.087 20.3971 110.294 20.3971 110.472C20.3971 110.768 20.342 111.034 20.2317 111.271C20.1214 111.508 20.1214 111.775 20.2317 112.071C20.6728 112.13 21.0588 112.041 21.3897 111.804C21.7205 111.567 22.0513 111.39 22.3822 111.271C22.713 111.153 23.0438 111.123 23.3747 111.182C23.7607 111.182 24.1191 111.034 24.4499 110.738C24.7256 110.975 25.0289 110.975 25.3597 110.738C25.6905 110.501 25.9662 110.56 26.1868 110.916C26.4625 110.56 26.9312 110.294 27.5929 110.116C28.2545 109.939 28.8059 109.939 29.247 110.116C29.4676 110.59 29.633 110.916 29.7433 111.094C29.8536 111.212 29.9363 111.33 29.9914 111.449C30.0466 111.567 30.0466 111.745 29.9914 111.982C29.9363 112.16 29.9363 112.367 29.9914 112.604C30.1017 113.078 30.1293 113.403 30.0741 113.581C30.0741 113.7 30.0741 113.818 30.0741 113.937C30.1293 114.351 30.212 114.736 30.3223 115.091C30.4325 115.447 30.5153 115.773 30.5704 116.069L30.6531 116.691Z" fill="#F5F0E8"/>
</svg>
